<svg xmlns="http://www.w3.org/2000/svg" width="23" height="23" viewBox="0 0 23 23" fill="none">
<path d="M15.5461 6.42423H12.8038V4.75523C13.6055 4.52693 14.1947 3.78822 14.1947 2.91567C14.1947 1.85943 13.3352 1 12.279 1C11.2228 1 10.3633 1.85943 10.3633 2.91567C10.3633 3.78953 10.9525 4.52693 11.7542 4.75523V6.42423H8.8964C5.09393 6.42423 2 9.51816 2 13.3206C2 14.9161 2.55633 16.4552 3.55222 17.6781C4.63601 19.0086 5.63977 20.4007 6.63041 21.8007L6.91382 22.2009C7.27333 22.7087 7.83229 23 8.44767 23C9.51178 23 10.3463 22.1694 10.3463 21.1093V20.2183H15.6629C19.51 20.2183 22.6315 17.0522 22.558 13.1894C22.4858 9.41451 19.3237 6.42685 15.5474 6.42685L15.5461 6.42423ZM11.413 2.91436C11.413 2.43675 11.8014 2.04837 12.279 2.04837C12.7566 2.04837 13.145 2.43675 13.145 2.91436C13.145 3.39196 12.7566 3.78034 12.279 3.78034C11.8014 3.78034 11.413 3.39196 11.413 2.91436Z" fill="url(#paint0_linear_5122_26905)"/>
<path d="M15.662 7.47345H8.89677C5.66769 7.47345 3.05005 10.0911 3.05005 13.3202C3.05005 14.7254 3.54602 16.0152 4.37265 17.0229L6.58091 19.9122L7.77099 21.593C8.24466 22.2608 9.29565 21.9262 9.29565 21.1075V19.1669H15.662C18.891 19.1669 21.5087 16.5493 21.5087 13.3202C21.5087 10.0911 18.891 7.47345 15.662 7.47345Z" fill="url(#paint1_linear_5122_26905)"/>
<path opacity="0.36" d="M8.59629 15.8847L16.7103 15.8847C18.1263 15.8847 19.2742 14.7368 19.2742 13.3209C19.2742 11.9049 18.1263 10.757 16.7103 10.757H8.59629C7.18032 10.757 6.03245 11.9049 6.03245 13.3209C6.03245 14.7368 7.18032 15.8847 8.59629 15.8847Z" fill="#0E1C2E"/>
<path d="M15.4439 14.2963C15.9823 14.2963 16.4187 13.8599 16.4187 13.3214C16.4187 12.783 15.9823 12.3466 15.4439 12.3466C14.9054 12.3466 14.469 12.783 14.469 13.3214C14.469 13.8599 14.9054 14.2963 15.4439 14.2963Z" fill="white"/>
<path d="M9.86045 14.2963C10.3989 14.2963 10.8353 13.8599 10.8353 13.3214C10.8353 12.783 10.3989 12.3466 9.86045 12.3466C9.32203 12.3466 8.88556 12.783 8.88556 13.3214C8.88556 13.8599 9.32203 14.2963 9.86045 14.2963Z" fill="white"/>
<defs>
<linearGradient id="paint0_linear_5122_26905" x1="1.32033" y1="3.7213" x2="21.6527" y2="22.319" gradientUnits="userSpaceOnUse">
<stop offset="0.05" stop-color="white"/>
<stop offset="0.26" stop-color="#68BBF9"/>
<stop offset="0.41" stop-color="#7254F6"/>
<stop offset="0.72" stop-color="#9438F6"/>
<stop offset="0.75" stop-color="#963CF6"/>
<stop offset="0.79" stop-color="#9D49F6"/>
<stop offset="0.82" stop-color="#A85EF7"/>
<stop offset="0.86" stop-color="#B97DF9"/>
<stop offset="0.9" stop-color="#CEA3FA"/>
<stop offset="0.94" stop-color="#E7D2FD"/>
<stop offset="0.97" stop-color="white"/>
</linearGradient>
<linearGradient id="paint1_linear_5122_26905" x1="1.94001" y1="5.19564" x2="23.2236" y2="23.527" gradientUnits="userSpaceOnUse">
<stop stop-color="#4A0FC3"/>
<stop offset="1" stop-color="#4A0FC3" stop-opacity="0"/>
</linearGradient>
</defs>
</svg>