<svg xmlns="http://www.w3.org/2000/svg" width="24" height="24" viewBox="0 0 24 24" fill="none">
    <path d="M5.5 6.90781C5.16863 6.90781 4.9 7.17644 4.9 7.50781C4.9 7.83918 5.16863 8.10781 5.5 8.10781V6.90781ZM18.5 8.10781C18.8314 8.10781 19.1 7.83918 19.1 7.50781C19.1 7.17644 18.8314 6.90781 18.5 6.90781V8.10781ZM5.5 11.4005C5.16863 11.4005 4.9 11.6692 4.9 12.0005C4.9 12.3319 5.16863 12.6005 5.5 12.6005V11.4005ZM18.5 12.6005C18.8314 12.6005 19.1 12.3319 19.1 12.0005C19.1 11.6692 18.8314 11.4005 18.5 11.4005V12.6005ZM5.5 15.8932C5.16863 15.8932 4.9 16.1619 4.9 16.4932C4.9 16.8246 5.16863 17.0932 5.5 17.0932V15.8932ZM18.5 17.0932C18.8314 17.0932 19.1 16.8246 19.1 16.4932C19.1 16.1619 18.8314 15.8932 18.5 15.8932V17.0932ZM5.5 8.10781H18.5V6.90781H5.5V8.10781ZM5.5 12.6005H18.5V11.4005H5.5V12.6005ZM5.5 17.0932H18.5V15.8932H5.5V17.0932Z" fill="white"/>
</svg>