<svg width="24" height="22" viewBox="0 0 24 22" fill="none" xmlns="http://www.w3.org/2000/svg">
<path d="M8.1015 3.72588H20.9967L21.1803 2.90669C21.4486 1.63553 20.4882 0.434998 19.1888 0.434998H6.66086C5.03661 0.434998 3.63833 1.56491 3.28523 3.14679L0.545188 15.8019C0.276833 17.073 1.23726 18.2735 2.53666 18.2735H3.29936L6.0959 5.33601C6.30776 4.40383 7.14107 3.72588 8.1015 3.72588Z" fill="#00CDFA"/>
<path d="M21.7594 3.7265H20.9967L18.2002 16.664C18.0024 17.5962 17.1691 18.2742 16.2087 18.2742H3.31351L3.1299 19.0934C2.86155 20.3645 3.82198 21.5651 5.12138 21.5651H17.6493C19.2736 21.5651 20.6718 20.4351 21.0249 18.8533L23.765 6.21232C24.0334 4.92704 23.0588 3.7265 21.7594 3.7265Z" fill="url(#paint0_linear_18_373)"/>
<path d="M18.1999 16.664L20.9964 3.7265H8.10125C7.14082 3.7265 6.30751 4.39033 6.10978 5.33663L3.31323 18.2742H16.2084C17.1688 18.2742 17.988 17.5962 18.1999 16.664Z" fill="#3A00FF"/>
<path d="M7.5086 13.3372L6.57544 8.48578H8.03881L8.48949 11.5133L9.96877 8.48578H10.955L11.5329 11.5133L12.8902 8.48578H14.3536L11.9836 13.3372H10.7588L10.1755 10.4953L8.74929 13.3372H7.5086Z" fill="white"/>
<path d="M13.8396 12.5522L14.6031 11.6668C14.9477 12.0909 15.3825 12.3083 15.918 12.3083C16.2627 12.3083 16.5649 12.1652 16.6126 11.9266C16.6285 11.7834 16.5331 11.6615 16.3104 11.5554C16.2573 11.5289 16.1407 11.4865 15.9551 11.4229C15.5893 11.2797 15.4302 11.2267 15.1121 11.0252C14.6667 10.7495 14.4546 10.3678 14.5289 9.7103C14.672 8.81425 15.4938 8.31586 16.5331 8.31586C17.2435 8.31586 17.8268 8.54914 18.2986 9.01042L17.5457 9.89057C17.2329 9.59896 16.8724 9.4558 16.4641 9.4558C16.1354 9.4558 15.9392 9.55124 15.8968 9.75802C15.8597 9.92768 15.9498 10.0708 16.1619 10.1663C16.2308 10.2034 16.374 10.2617 16.5861 10.3412C16.7982 10.4208 16.9784 10.4897 17.1269 10.5745C17.6041 10.776 18.1661 11.2479 17.9964 11.969C17.9169 12.4409 17.6783 12.812 17.2753 13.0771C16.8777 13.3422 16.3952 13.4748 15.8544 13.4748C14.9848 13.4695 14.3115 13.1672 13.8396 12.5522Z" fill="white"/>
<defs>
<linearGradient id="paint0_linear_18_373" x1="3.08444" y1="12.6478" x2="23.8045" y2="12.6478" gradientUnits="userSpaceOnUse">
<stop stop-color="#FFB3FF"/>
<stop offset="0.5335" stop-color="#FF76DF"/>
<stop offset="1" stop-color="#C239C6"/>
</linearGradient>
</defs>
</svg>
